<svg xmlns="http://www.w3.org/2000/svg" viewBox="0 0 64 64" width="64" height="64">
  <rect x="6" y="8" width="52" height="12" rx="3" fill="#185FA5"/>
  <rect x="10" y="12" width="32" height="2.5" rx="1.25" fill="white" opacity="0.8"/>
  <polygon points="50,9 54,14 46,14" fill="#e8a020"/>
  <rect x="6" y="8" width="52" height="12" rx="3" fill="none" stroke="#e8a020" stroke-width="1.5"/>
  <rect x="10" y="24" width="30" height="2" rx="1" fill="#444" opacity="0.4"/>
  <rect x="10" y="28" width="24" height="1.5" rx="0.75" fill="#444" opacity="0.3"/>
  <rect x="6" y="36" width="52" height="10" rx="3" fill="#1a3a5c"/>
  <rect x="10" y="40" width="30" height="2" rx="1" fill="white" opacity="0.6"/>
  <polygon points="50,38 54,43 46,43" fill="#e8a020" opacity="0.7"/>
  <rect x="6" y="50" width="52" height="10" rx="3" fill="#1a3a5c" opacity="0.6"/>
  <rect x="10" y="54" width="30" height="2" rx="1" fill="white" opacity="0.4"/>
  <polygon points="50,51 54,56 46,56" fill="white" opacity="0.3"/>
</svg>