<svg xmlns="http://www.w3.org/2000/svg" viewBox="0 0 64 64" width="64" height="64">
  <circle cx="32" cy="18" r="10" fill="#185FA5"/>
  <circle cx="32" cy="18" r="6" fill="#1a3a5c"/>
  <path d="M14 52 Q14 36 32 36 Q50 36 50 52" fill="#1a3a5c"/>
  <path d="M14 52 Q14 38 32 38 Q50 38 50 52" fill="#185FA5" opacity="0.8"/>
  <circle cx="12" cy="22" r="7" fill="#1D9E75"/>
  <circle cx="12" cy="22" r="4" fill="#0F6E56"/>
  <path d="M0 46 Q0 34 12 34 Q20 34 22 40" fill="#1D9E75" opacity="0.6"/>
  <circle cx="52" cy="22" r="7" fill="#e8a020"/>
  <circle cx="52" cy="22" r="4" fill="#633806"/>
  <path d="M64 46 Q64 34 52 34 Q44 34 42 40" fill="#e8a020" opacity="0.6"/>
</svg>